<?xml version="1.0" encoding="UTF-8"?>
<svg xmlns="http://www.w3.org/2000/svg" xmlns:xlink="http://www.w3.org/1999/xlink" width="597px" height="184px" viewBox="0 0 597 184" version="1.1">
  <title>B-o-T_Logo_4c</title>
  <defs>
    <linearGradient x1="50%" y1="0.745770847%" x2="50%" y2="52.1009744%" id="linearGradient-1">
      <stop stop-color="#1D1E33" offset="0%"></stop>
      <stop stop-color="#2271B3" offset="100%"></stop>
    </linearGradient>
  </defs>
  <g id="Logo" stroke="none" stroke-width="1" fill="none" fill-rule="evenodd">
    <g id="A2" transform="translate(-146, -533)">
      <g id="B-o-T_Logo_4c" transform="translate(146, 533)">
        <g id="Brand_4c" transform="translate(211, 25)">
          <text id="Back-on-Track.eu" font-family="MarkPro-Bold, Mark Pro" font-size="46" font-weight="bold" fill="#1D1E33">
            <tspan x="0" y="47">Back-on-Track.eu</tspan>
          </text>
          <text id="European-network-to" font-family="MarkPro, Mark Pro" font-size="24" font-weight="normal" fill="#2271B3">
            <tspan x="1" y="84">European network to promote</tspan>
            <tspan x="1" y="114">cross-border night trains</tspan>
          </text>
        </g>
        <g id="Logo_Circle">
          <g id="Logo_4c" transform="translate(2, 2)">
            <circle id="Oval" fill="url(#linearGradient-1)" cx="90" cy="90" r="90"></circle>
            <path d="M84.2715672,120.840309 C109.635631,130.750182 131.151242,142.166208 151.158566,156.028051 C167.896947,140.516749 178.726718,118.7192 179.895829,94.3883988 C170.807224,91.5727645 161.237616,90 152.02,90 C126.256262,90 101.738181,100.909977 84.2715672,120.840309 Z" id="Oval" fill="#20603D"></path>
            <path d="M90,180 C113.244222,180 134.430344,171.188227 150.400095,156.722952 C122.7336,138.335859 106.054461,129.579597 81.0452398,120.640155 C56.0360181,111.700713 38.7651518,106.875232 0.792677283,101.997367 C6.65823131,146.03096 44.3621684,180 90,180 Z" id="Oval" fill="#008F39"></path>
            <path d="M137.92782,139.003017 C138.249854,138.392373 139.005938,138.158409 139.616582,138.480442 C145.852036,141.76882 152.052817,145.225976 158.211624,148.83913 C157.742051,149.428461 157.007581,150.196099 156.483426,150.724064 C150.50902,147.227922 144.495725,143.879891 138.450394,140.691779 C137.839751,140.369745 137.605786,139.61366 137.92782,139.003017 Z" id="LowerTrack" fill="#1D1E33" fill-rule="nonzero"></path>
            <path d="M121.737298,137.692801 C122.076808,137.091699 122.839326,136.879637 123.440428,137.219148 C132.443576,142.304253 143.264862,148.885359 152.209172,155.116818 C151.853473,155.471216 150.58969,156.611327 150.330901,156.855623 C141.603194,150.793666 130.99285,144.356072 122.21095,139.395931 C121.609848,139.05642 121.397787,138.293903 121.737298,137.692801 Z" id="UpperTrack" fill="#1D1E33" fill-rule="nonzero"></path>
            <path d="M0.180945616,90.5574156 C35.627902,91.240154 80.2871388,97.5497985 123.369519,107.257858 L126.481011,107.965534 C138.710866,110.77286 143.121914,116.801192 145.681559,134.414517 C145.969616,136.544387 144.530999,138.532864 142.178571,139.575527 C140.066359,140.511719 138.120015,140.983922 135.051866,141.201003 C129.353865,141.604154 125.304746,141.180468 121.184139,138.824283 C106.030439,130.159317 89.4459057,123.316408 67.051881,115.932103 C47.4901407,109.481727 24.9226323,104.679614 0.789965752,102.035923 C0.589739641,100.717905 0.417979137,98.9718699 0.286251048,97.1820248 L0.112802422,97.1663609 C2.42726902,97.3811559 4.71479492,97.6010474 6.9792015,97.8283235 C6.99104014,97.8283235 6.99367095,97.4889227 6.99425557,97.0740995 L6.99498635,96.1659523 C6.99611384,95.833478 6.99949631,95.5841223 7.00964371,95.5841223 C4.72680099,95.4441391 2.44328281,95.325818 0.158063972,95.2304198 C0.0569499855,93.4428984 0,91.7533786 0,90.5565173 Z M58.0124304,101.75781 C57.9923796,101.75781 57.9886665,102.404338 57.9879789,103.170594 L57.9873938,104.445841 C57.9861686,105.11869 57.9814428,105.653011 57.9632147,105.653011 C65.756406,107.400337 73.6926365,109.477714 81.9813903,111.992655 L81.9813903,106.441002 C73.9358803,104.718769 65.9524476,103.147878 58.0124304,101.75781 Z M36.9774161,98.5541726 L36.9774161,101.636519 C41.6799336,102.391708 46.3650389,103.233531 51.0803383,104.186424 L51.0803383,100.549272 C46.3954213,99.7908491 41.6396211,99.1737658 36.9774161,98.5541726 Z M21.5803364,96.7595448 L21.5809711,96.9393161 C21.5812654,97.024379 21.5816441,97.1359146 21.5820683,97.2657846 L21.5829656,97.547559 C21.5840563,97.8991891 21.5852529,98.3210996 21.5860608,98.7099008 L21.5869726,99.3246922 C21.5870014,99.3700068 21.5870166,99.4134399 21.5870166,99.4546903 C25.1128494,99.8922069 28.6001808,100.36213 32.0651478,100.874121 C32.0651478,100.874121 32.0410099,99.7817277 32.036812,98.926811 L32.0363622,98.5788347 C32.0375616,98.1988717 32.0453202,97.9257733 32.0651478,97.9257733 C28.5642599,97.4957308 25.0705411,97.1054896 21.5803364,96.7595448 Z M9.96834097,95.7775968 L9.96870413,95.825917 C9.97033496,96.0453185 9.97700216,96.9686522 9.9793045,97.7002953 L9.97999657,97.9995093 C9.98005824,98.0465519 9.98009079,98.0919637 9.98009079,98.1354183 C12.6933002,98.4186039 15.375208,98.7140626 18.0325628,99.0258355 L18.0320063,98.6186752 C18.0303367,97.8857868 18.0236582,96.4200099 17.9969445,96.4200099 C15.3199615,96.1781999 12.644311,95.9633849 9.96834097,95.7775968 Z" id="TrainTaurus" fill="#1D1E33"></path>
            <polygon id="BigStar" fill="#EAF044" points="66.5 71.25 62.0916106 73.5676275 62.9335381 68.6588137 59.3670761 65.1823725 64.2958053 64.4661863 66.5 60 68.7041947 64.4661863 73.6329239 65.1823725 70.0664619 68.6588137 70.9083894 73.5676275"></polygon>
            <polygon id="NorthWestStar" fill="#EAF044" points="39 42.5 36.0610737 44.045085 36.6223587 40.7725425 34.2447174 38.454915 37.5305369 37.9774575 39 35 40.4694631 37.9774575 43.7552826 38.454915 41.3776413 40.7725425 41.9389263 44.045085"></polygon>
            <polygon id="LeftStar" fill="#EAF044" points="22 65.5 19.0610737 67.045085 19.6223587 63.7725425 17.2447174 61.454915 20.5305369 60.9774575 22 58 23.4694631 60.9774575 26.7552826 61.454915 24.3776413 63.7725425 24.9389263 67.045085"></polygon>
            <polygon id="TopStar" fill="#EAF044" points="81 24.5 78.0610737 26.045085 78.6223587 22.7725425 76.2447174 20.454915 79.5305369 19.9774575 81 17 82.4694631 19.9774575 85.7552826 20.454915 83.3776413 22.7725425 83.9389263 26.045085"></polygon>
            <polygon id="RightStar" fill="#EAF044" points="107 40.5 104.061074 42.045085 104.622359 38.7725425 102.244717 36.454915 105.530537 35.9774575 107 33 108.469463 35.9774575 111.755283 36.454915 109.377641 38.7725425 109.938926 42.045085"></polygon>
            <path d="M133.668241,69.5479882 C141.952512,69.5479882 148.668241,62.8322594 148.668241,54.5479882 C148.668241,46.2637169 141.952512,39.5479882 133.668241,39.5479882 C132.837627,39.5479882 132.022781,39.6155005 131.228892,39.7453371 C130.489752,39.8662198 129.026659,40.2658721 129.070154,40.2658721 C135.012763,42.2611964 139.357896,47.8216753 139.357896,54.5479882 C139.357896,61.2743011 134.99539,66.7714776 129.026659,68.8160383 C129.026659,68.8160383 132.048235,69.5479882 133.668241,69.5479882 Z" id="Moon" fill="#EAF044" transform="translate(138.8475, 54.548) rotate(45) translate(-138.8475, -54.548)"></path>
            <ellipse id="LeftLight" fill="#EAF044" transform="translate(140.671, 130.2919) rotate(-13) translate(-140.671, -130.2919)" cx="140.670988" cy="130.291906" rx="1.625" ry="2.25"></ellipse>
            <ellipse id="RightLight" fill="#EAF044" transform="translate(129.2407, 132.1375) rotate(-13) translate(-129.2407, -132.1375)" cx="129.240733" cy="132.137475" rx="1.625" ry="2.25"></ellipse>
            <ellipse id="TopLight" fill="#EAF044" transform="translate(133.2407, 118.1375) rotate(-13) translate(-133.2407, -118.1375)" cx="133.240733" cy="118.137475" rx="1.625" ry="2.25"></ellipse>
          </g>
          <path d="M92,0 C142.810197,0 184,41.189803 184,92 C184,142.810197 142.810197,184 92,184 C41.189803,184 0,142.810197 0,92 C0,41.189803 41.189803,0 92,0 Z M92,2 C42.2943725,2 2,42.2943725 2,92 C2,141.705627 42.2943725,182 92,182 C141.705627,182 182,141.705627 182,92 C182,42.2943725 141.705627,2 92,2 Z" id="White-Circle" fill="#FFFFFF"></path>
        </g>
      </g>
    </g>
  </g>
</svg>
